<svg width="11" height="18" viewBox="0 0 11 18" fill="none" xmlns="http://www.w3.org/2000/svg">
<path d="M10.6727 1.73994C11.0813 1.36843 11.1114 0.735984 10.7399 0.327327C10.3684 -0.0813311 9.73599 -0.111448 9.32733 0.260059L10.6727 1.73994ZM1.2 9L0.527327 8.26006C0.318852 8.44958 0.199999 8.71825 0.199999 9C0.199999 9.28174 0.318852 9.55042 0.527327 9.73994L1.2 9ZM9.32733 17.7399C9.73598 18.1114 10.3684 18.0813 10.7399 17.6727C11.1114 17.264 11.0813 16.6316 10.6727 16.2601L9.32733 17.7399ZM9.32733 0.260059L0.527327 8.26006L1.87267 9.73994L10.6727 1.73994L9.32733 0.260059ZM0.527327 9.73994L9.32733 17.7399L10.6727 16.2601L1.87267 8.26006L0.527327 9.73994Z" fill="currentColor"/>
</svg>
