<svg width="11" height="18" viewBox="0 0 11 18" fill="none" xmlns="http://www.w3.org/2000/svg">
<path d="M0.327327 16.2601C-0.0813304 16.6316 -0.111447 17.264 0.26006 17.6727C0.631567 18.0813 1.26402 18.1114 1.67267 17.7399L0.327327 16.2601ZM9.8 9L10.4727 9.73994C10.6811 9.55042 10.8 9.28175 10.8 9C10.8 8.71826 10.6811 8.44958 10.4727 8.26006L9.8 9ZM1.67267 0.26006C1.26402 -0.111447 0.631567 -0.0813304 0.26006 0.327327C-0.111447 0.735985 -0.0813304 1.36843 0.327327 1.73994L1.67267 0.26006ZM1.67267 17.7399L10.4727 9.73994L9.12733 8.26006L0.327327 16.2601L1.67267 17.7399ZM10.4727 8.26006L1.67267 0.26006L0.327327 1.73994L9.12733 9.73994L10.4727 8.26006Z" fill="currentColor"/>
</svg>
