<svg width="34" height="14" viewBox="0 0 34 14" fill="none" xmlns="http://www.w3.org/2000/svg">
<path d="M32.7 5.74716H27.9C27 4.4364 23.4 0 16.8 0C10.3 0 6.5 4.4364 5.6 5.74716H0.8C0.3 5.74716 0 6.04964 0 6.45295C0 6.85626 0.3 7.25957 0.8 7.25957H5.2V11.8976H2.5C2.1 11.8976 1.7 12.2001 1.7 12.7042C1.7 13.2084 2 13.5109 2.5 13.5109H5.9C6 13.5109 6.1 13.5109 6.2 13.41C6.2 13.41 6.3 13.41 6.3 13.3092C6.4 13.3092 6.4 13.2084 6.5 13.1076C6.5 13.0067 10.1 7.76371 16.8 7.76371C23.5 7.76371 26.7 12.9059 26.8 13.1076C26.9 13.2084 26.9 13.2084 27 13.3092C27 13.3092 27 13.3092 27.1 13.41C27.2 13.5109 27.3 13.5109 27.4 13.5109H31C31.4 13.5109 31.8 13.2084 31.8 12.7042C31.8 12.2001 31.5 11.8976 31 11.8976H28.3V7.25957H32.7C33.1 7.25957 33.5 6.95709 33.5 6.45295C33.5 5.94881 33.1 5.74716 32.7 5.74716ZM22.8 3.12565V7.56205C22 7.15874 21.1 6.85626 20.1 6.55378V2.01655C21.2 2.2182 22.1 2.62151 22.8 3.12565ZM13.8 1.91572V6.55378C12.5 6.85626 11.4 7.25957 10.4 7.76371V3.3273C11.4 2.72234 12.5 2.2182 13.8 1.91572ZM6.7 10.5869V6.6546C7 6.2513 7.7 5.34385 8.9 4.33558V8.67115C8 9.37694 7.3 9.98191 6.7 10.5869ZM15.3 6.2513V1.61324C15.8 1.51241 16.3 1.51241 16.8 1.51241C17.4 1.51241 18.1 1.61324 18.6 1.61324V6.2513C18 6.15047 17.4 6.15047 16.8 6.15047C16.3 6.15047 15.8 6.2513 15.3 6.2513ZM24.3 8.4695V4.13392C25.6 5.24302 26.4 6.2513 26.7 6.6546V10.486C26.1 9.88108 25.3 9.17529 24.3 8.4695Z" fill="currentColor"/>
</svg>
