<svg width="25px" height="12px" viewBox="0 0 25 12" xmlns="http://www.w3.org/2000/svg" fill="none">
    <path d="M24.7778,5.42317 C19.6389,-0.158086 13.8056,-0.0675796 12.5,0.0229272 C11.1944,-0.0675796 5.36111,-0.158086 0.222222,5.393 C0.0833333,5.57401 0,5.7852 0,5.99638 C0,6.20756 0.0833333,6.41874 0.222222,6.56959 C4.69444,11.4268 9.69445,12 11.7778,12 C12.0833,12 12.3333,12 12.5,11.9698 C12.6667,11.9698 12.9167,12 13.2222,12 C15.3056,12 20.3056,11.4268 24.7778,6.59976 C24.9167,6.44891 25,6.23773 25,6.02655 C25,5.7852 24.9167,5.57401 24.7778,5.42317 Z M12.3333,10.2804 C10.1389,10.2804 8.36111,8.34956 8.36111,5.96621 C8.36111,3.58286 10.1389,1.65205 12.3333,1.65205 C14.5278,1.65205 16.3056,3.61303 16.3056,5.99638 C16.3056,8.34956 14.5278,10.2804 12.3333,10.2804 Z M8.11111,2.22526 C7.33333,3.251 6.86111,4.54827 6.86111,5.99638 C6.86111,7.41432 7.33333,8.74175 8.11111,9.7675 C6.22222,9.19429 3.97222,8.1082 1.83333,5.99638 C3.97222,3.88455 6.22222,2.79847 8.11111,2.22526 Z M16.4722,9.88817 C17.3056,8.83226 17.8056,7.47466 17.8056,5.99638 C17.8056,4.5181 17.3056,3.1605 16.4722,2.10458 C18.4444,2.61746 20.8611,3.70354 23.1667,5.99638 C20.8611,8.25905 18.4167,9.3753 16.4722,9.88817 Z" fill="currentColor"/>
</svg>
