<svg width="25px" height="13px" viewBox="0 0 25 13" fill="none" xmlns="http://www.w3.org/2000/svg">
    <path d="M24.8323,0.777696 C24.5766,0.462875 24.122,0.431393 23.8379,0.714732 C18.6954,5.75186 13.3256,7.29448 7.92736,5.31111 C3.86451,3.83146 1.25064,0.809178 1.22223,0.777696 C0.966526,0.462875 0.51194,0.431393 0.227825,0.746214 C-0.0562913,1.02955 -0.0847029,1.53327 0.199413,1.84809 C0.284648,1.94253 1.36429,3.2333 3.29628,4.58703 L1.98934,7.51486 C1.81887,7.89264 1.96093,8.36488 2.30187,8.58525 C2.41552,8.64821 2.50075,8.6797 2.6144,8.6797 C2.8701,8.6797 3.12581,8.52229 3.23945,8.23895 L4.51797,5.40556 C5.22826,5.81483 5.99538,6.22409 6.84772,6.5704 L5.82491,9.75009 C5.68285,10.1594 5.88173,10.6001 6.25108,10.7575 C6.33632,10.789 6.42155,10.789 6.47837,10.789 C6.76249,10.789 7.04661,10.6001 7.16025,10.2538 L8.18307,7.04263 C9.26271,7.38893 10.2855,7.57782 11.2799,7.64079 L11.2799,11.7335 C11.2799,12.1742 11.5925,12.5205 11.9902,12.5205 C12.388,12.5205 12.7005,12.1742 12.7005,11.7335 L12.7005,7.70375 C13.7517,7.67227 14.7461,7.54634 15.7121,7.29448 L16.9622,10.3482 C17.0759,10.6316 17.3316,10.8205 17.6157,10.8205 C17.701,10.8205 17.8146,10.789 17.8998,10.7575 C18.2692,10.5686 18.4112,10.0964 18.2408,9.7186 L17.0759,6.9167 C18.2124,6.50743 19.2636,6.00372 20.258,5.40556 L21.366,8.05005 C21.4797,8.33339 21.7354,8.52229 22.0195,8.52229 C22.1047,8.52229 22.2184,8.4908 22.3036,8.45932 C22.673,8.27043 22.815,7.7982 22.6446,7.42041 L21.4797,4.61851 C22.673,3.79997 23.7526,2.85551 24.6902,1.94253 C25.0595,1.62771 25.088,1.124 24.8323,0.777696 Z" fill="currentColor"/>
</svg>
