<svg width="19" height="18" viewBox="0 0 19 18" fill="none" xmlns="http://www.w3.org/2000/svg">
<path d="M9.5 17.5533C9.33621 17.5533 9.25431 17.5533 9.09052 17.4772C1.06466 13.3634 0 7.95453 0 5.13583V5.05964C0 3.53602 1.31034 0.412598 5.40517 0.412598C7.53448 0.412598 8.76293 1.47913 9.5 2.69803C10.2371 1.47913 11.4655 0.412598 13.5948 0.412598C17.6897 0.412598 19 3.53602 19 5.05964V5.13583C19 7.95453 17.9353 13.3634 9.90948 17.4772C9.82759 17.4772 9.66379 17.5533 9.5 17.5533ZM5.40517 1.93622C1.88362 1.93622 1.63793 4.98346 1.63793 5.05964V5.13583C1.63793 7.57362 2.62069 12.2207 9.5 15.8774C16.4612 12.2207 17.444 7.57362 17.3621 5.13583V5.05964C17.3621 4.98346 17.1983 1.93622 13.5948 1.93622C10.5647 1.93622 10.319 5.21201 10.319 5.36437C10.319 5.74527 9.90948 6.05 9.5 6.05C9.09052 6.05 8.68103 5.74527 8.68103 5.36437C8.68103 5.21201 8.43534 1.93622 5.40517 1.93622Z" fill="currentColor"/>
</svg>
