<svg width="94" height="52" viewBox="0 0 94 52" fill="none" xmlns="http://www.w3.org/2000/svg">
<path d="M53.7278 44.5162C53.6014 44.3549 53.5383 44.1936 53.3488 44.0969C52.8434 44.1291 52.4328 43.9678 52.2432 43.5162C52.3696 43.2259 51.959 43.1291 52.1169 42.8388C51.8958 42.6453 51.7379 42.3872 51.422 42.4517C51.3904 42.4195 51.2641 42.3549 51.2957 42.2582C51.2009 42.0001 50.9166 41.7743 51.043 41.5485C51.2641 41.3872 51.043 41.1614 51.2009 41.0001C51.1061 40.7743 51.1377 40.4517 51.0746 40.1614C50.9482 39.7743 51.2009 39.3549 51.1061 38.9356C51.1377 38.9033 51.1377 38.8711 51.1693 38.8711C51.2957 38.2582 50.885 37.8388 51.043 37.1936C51.1693 37.1291 51.0114 36.9033 51.1693 36.8711V36.742C51.422 36.5485 51.5484 36.2904 51.7379 36.0324C51.8642 35.742 51.5484 35.6775 51.5168 35.4517C51.1693 35.0969 50.9482 34.7098 50.7271 34.3227C50.4113 34.2904 50.5376 33.9678 50.3481 33.7743C50.3797 33.613 50.1586 33.4195 50.2217 33.1614C50.3481 32.6453 50.2533 32.0646 50.2849 31.5485C50.1586 31.2904 50.2533 31.0001 50.2849 30.7098C50.6324 30.3227 50.2849 29.8065 50.4113 29.3549C50.4744 29.1936 50.6008 29.0324 50.5376 28.8388C50.6008 28.4195 50.3797 27.9033 50.506 27.4195C50.6955 27.3227 50.506 27.0969 50.6955 27.0001C50.6955 26.8065 50.6639 26.613 50.7587 26.5485C50.7587 26.4195 50.6324 26.2582 50.6008 26.0969C50.5376 26.0001 50.4744 25.9033 50.3481 25.9678C50.2217 25.742 50.0006 25.4517 50.2217 25.1936C50.1902 25.0324 50.3165 24.8388 50.3797 24.6775C50.3481 24.3227 50.4744 23.8711 50.2849 23.5485C49.969 22.9356 50.4113 22.3549 50.2217 21.7098C50.3797 21.5485 50.2849 21.2904 50.3165 21.0969C49.9691 20.8388 50.3165 20.484 50.0954 20.1936C50.2849 19.742 50.127 19.1936 50.127 18.742C49.9375 18.3872 50.1586 17.9678 50.0638 17.6453C50.1586 17.2259 50.0954 16.9356 50.0954 16.5162C50.3797 16.2259 50.0322 15.9678 50.0638 15.6453C50.1902 15.3227 50.0322 14.9356 50.0954 14.613L50.0638 14.5485C50.0638 13.8388 49.9375 13.1614 49.969 12.3872C49.6532 12.1614 50.127 11.8711 49.9059 11.5485C50.0006 11.2904 49.8427 11.0969 49.8427 10.8711C50.0638 10.8388 50.127 10.613 50.3165 10.484C50.5692 10.5485 50.6955 10.2904 50.885 10.1614C50.7587 9.90332 51.1061 9.87106 51.0114 9.613C50.7271 9.45171 50.9166 9.12913 50.885 8.80655C50.7587 8.77429 50.7903 8.67751 50.7903 8.58074C50.7587 8.54848 50.6955 8.45171 50.6324 8.48397C50.506 8.29042 50.1902 8.35493 50.0954 8.09687C49.5268 8.00009 49.4953 7.29042 49.0846 6.93558C48.8635 7.06461 48.7688 6.77429 48.6108 6.77429C48.3897 6.48397 47.916 6.2259 47.9475 5.87106C47.9475 5.8388 47.8844 5.8388 47.8844 5.80655C47.8212 5.67751 47.7896 5.51622 47.6949 5.41945C47.7264 5.25816 47.7264 5.09687 47.7264 4.96784C47.758 4.93558 47.8844 4.87106 47.7264 4.80655C47.7264 4.54848 47.6949 4.25816 47.7264 3.93558C47.6949 3.87106 47.6001 3.87106 47.5685 3.77429C47.5053 3.613 47.6001 3.54848 47.5685 3.48397C47.5369 3.41945 47.2527 2.93558 46.9052 2.90332C46.6841 3.03235 46.6209 3.16138 46.5893 3.32268C46.4946 3.38719 46.5578 3.48397 46.5262 3.58074C46.4314 3.77429 46.463 4.12913 46.463 4.38719C46.463 4.58074 46.3682 4.64526 46.3682 4.80655C46.3682 4.87106 46.3682 5.41945 46.2103 5.613C46.1787 5.77429 46.2103 5.87106 46.1471 6.03235C46.084 6.16139 45.9576 6.29042 45.8629 6.38719C45.8313 6.51622 45.7049 6.64526 45.5786 6.77429C45.4838 6.90332 45.3891 6.87106 45.3575 6.90332C45.2627 6.96784 45.2943 7.03235 45.2627 7.06461C45.2311 7.09687 45.1996 7.09687 45.168 7.12913C45.0416 7.25816 45.01 7.38719 44.9153 7.48397C44.8521 7.54848 44.7889 7.54848 44.7258 7.613C44.5994 7.74203 44.6626 7.8388 44.4415 7.96784C44.4099 8.0001 44.3783 8.09687 44.3467 8.12913C44.2836 8.16139 44.2204 8.2259 44.1888 8.29042C44.1256 8.35493 44.0309 8.35493 43.9993 8.41945C43.8729 8.58074 43.7782 8.74203 43.715 8.90332C43.6834 9.0001 43.7782 9.09687 43.6518 9.12913C43.6518 9.16138 43.6518 9.29042 43.5887 9.29042C43.4939 9.48397 43.5571 9.8388 43.6203 9.93558C43.715 10.0646 43.5571 10.1291 43.5887 10.1614C43.5887 10.2904 43.6518 10.2582 43.715 10.3549C43.7466 10.4194 43.715 10.484 43.7466 10.5485C43.8098 10.6453 43.9361 10.5807 43.9677 10.8388C43.9677 10.9356 44.1572 10.9678 44.3152 11.1614C44.3467 11.1936 44.4415 11.2904 44.4731 11.3872C44.5047 11.5162 44.5047 11.613 44.5363 11.6453C44.5678 11.8065 44.5047 11.8065 44.5047 11.8711C44.5047 11.9356 44.5363 11.9356 44.5678 12.0001C44.5994 12.0646 44.5994 12.1614 44.6626 12.1614C44.7258 12.1936 44.7258 12.3227 44.6626 12.4194C44.5363 12.5162 44.6626 12.5485 44.6626 12.613C44.6626 12.7098 44.5994 12.7743 44.5994 12.8388C44.5994 12.8711 44.6626 12.9033 44.6626 12.9678C44.6942 13.0324 44.6942 13.2582 44.5994 13.2259C44.5678 13.2259 44.5994 13.5162 44.5363 13.484C44.4731 13.4517 44.5047 14.4194 44.5047 14.5485C44.5047 14.613 44.4415 14.6453 44.4415 14.742C44.4415 14.8711 44.4415 15.0646 44.4415 15.1614C44.4415 15.1936 44.5047 15.2582 44.5047 15.3227C44.5363 15.5162 44.4731 15.4195 44.4415 15.5485C44.4415 15.5807 44.5047 15.5807 44.4731 15.6775C44.4731 15.7098 44.4099 15.7098 44.4099 15.8711C44.3783 16.0001 44.4099 16.3549 44.4099 16.4517C44.3783 16.613 44.5994 16.742 44.4099 16.7743V18.1291C44.5994 18.5485 44.6626 19.0001 44.7574 19.484C44.631 19.7098 44.631 20.0969 44.7574 20.3549C44.4731 20.613 44.7889 21.0969 44.4731 21.3549V22.8065C44.5678 22.9033 44.5363 23.0001 44.4731 23.0969C44.6942 23.2582 44.3467 23.3549 44.4731 23.5485C44.6626 23.6775 44.4415 23.9033 44.6942 24.0001C44.5363 24.2904 44.7258 24.5485 44.7258 24.8388C44.9153 24.9356 44.5994 25.0324 44.7574 25.1614C44.7574 25.2582 44.7889 25.3549 44.7258 25.4195C44.8521 25.7743 44.4731 25.9356 44.5994 26.3227C44.5363 26.613 44.5363 26.9678 44.5994 27.2582C44.5678 27.3227 44.631 27.4517 44.5363 27.484C44.6626 28.2904 44.5047 29.0969 44.6626 29.9356C44.4415 30.9678 44.7889 32.0646 44.7889 33.0646L44.8521 33.1936C44.8205 33.5807 44.7574 33.9356 44.3783 34.1936C44.094 34.1291 44.1888 34.484 43.9677 34.5485C43.9677 34.5807 43.9361 34.6453 43.9993 34.6775C43.8098 35.1291 43.2728 35.2904 42.957 35.6453V36.2582C43.1465 36.3872 43.0833 36.6775 43.3044 36.742C43.3992 36.8711 43.5887 37.0324 43.5255 37.1936C43.8729 37.5485 43.715 38.1936 43.715 38.6775H43.6834C43.6834 38.9033 43.7782 39.1291 43.715 39.3549H43.6834C43.5255 39.8388 43.9677 40.0969 43.8414 40.5807C43.8414 40.9678 44.0625 41.484 43.8729 41.9033C43.715 42.5162 43.0833 42.2904 42.7674 42.8065C42.6727 42.9033 42.6411 43.0324 42.5779 43.1291C42.6095 43.2582 42.6095 43.3227 42.5463 43.3872C42.6411 43.8711 42.1673 44.2259 41.8514 44.484C41.9462 44.6453 41.7567 44.7098 41.7251 44.8388C41.7567 45.0324 41.7251 45.2904 41.8514 45.484C41.8514 45.7743 42.1673 45.8388 42.2305 46.0969C42.5779 45.9356 43.1781 46.2582 43.336 45.8065C43.4939 45.8388 43.6834 45.742 43.8098 45.8711C43.7782 45.8388 43.8414 45.8065 43.8414 45.7743H44.4731C44.6942 46.0969 45.01 45.742 45.3259 45.8711C45.547 46.0001 45.7997 45.8388 46.0524 45.8065C46.1787 45.9356 46.3998 45.8388 46.5578 45.8711C46.6841 46.0001 46.842 46.0324 46.9368 46.1614C47.5685 46.1936 48.0107 45.9678 48.6108 46.1614C48.7056 46.0001 48.8951 46.0969 49.0215 46.0646C49.3057 45.9033 49.5584 46.1291 49.8743 46.0969C49.969 46.0646 50.0322 45.9678 50.1586 46.0001C50.3797 45.7743 50.8219 45.8388 51.0746 45.9356C51.1693 46.0969 51.3588 46.0324 51.4852 46.1614C51.801 46.1291 52.1169 46.0324 52.4643 46.0646C52.6539 45.8711 52.875 45.8065 53.1592 45.8711C53.3488 45.742 53.7594 45.5807 53.6014 45.2582C53.8541 45.0001 53.8225 44.7743 53.7278 44.5162ZM48.8951 34.5162C48.9267 34.5485 48.9899 34.6453 49.0846 34.613C49.0531 34.6775 49.1162 34.6775 49.1478 34.6775C49.211 34.613 49.4005 34.6453 49.5268 34.6453C49.6532 34.742 49.6848 34.8711 49.7479 35.0001C49.6216 35.0969 49.5268 35.3549 49.2742 35.2904C49.0531 35.4195 48.9583 35.0646 48.7372 35.1614C48.5477 35.0646 48.4529 34.9356 48.3266 34.7743C48.3897 34.4517 48.7372 34.4517 48.8951 34.5162ZM48.1686 33.8711C48.0423 33.6775 48.0107 33.5485 48.1686 33.3549C48.295 33.2259 48.3897 33.1291 48.4213 32.9678C48.8004 32.8711 48.9899 32.0001 49.4005 32.5485C49.4637 32.9356 49.4953 33.3549 49.3689 33.6775C49.1162 33.9033 48.8004 34.1291 48.4845 34.0001C48.3897 34.0001 48.2318 34.0001 48.1686 33.8711ZM49.4005 30.6775C49.2426 31.1291 48.9267 31.484 48.6424 31.8711C48.2634 31.9356 48.1371 32.3549 47.8844 32.5807C47.6633 32.7743 47.758 33.0001 47.5369 33.1936C47.5053 33.484 47.2211 33.6775 47.1263 33.9033C46.8104 33.9033 46.6525 34.4195 46.2419 34.1936C45.926 34.0646 45.7049 33.8065 45.7049 33.484C45.7997 33.4195 45.7365 33.1936 45.8313 33.1291C45.6418 32.8711 46.2103 32.742 46.1156 32.4517C46.9684 31.5807 47.9475 30.8388 48.4845 29.7743C48.6424 29.5162 48.8635 29.3549 49.1162 29.0969C49.2426 29.1291 49.4005 29.1291 49.4953 29.2904C49.3373 29.7743 49.6848 30.2904 49.4005 30.6775ZM47.7264 34.9356C47.7264 35.1614 47.4422 35.1291 47.2527 35.2904C47.0316 35.2904 46.8736 35.0969 46.6209 35.1291C46.4946 35.0646 46.3998 35.0646 46.3367 34.9356C46.2103 34.8065 46.3367 34.6453 46.4946 34.5807C46.9052 34.6775 47.4422 34.5162 47.7264 34.9356ZM49.3057 27.0969C49.3057 27.1936 49.3057 27.2904 49.2426 27.3227C49.2742 27.613 49.1162 27.8388 49.1162 28.0969C48.7056 28.4195 48.3897 28.9033 47.9791 29.1614C47.4106 29.9678 46.7473 30.5807 46.1471 31.3872C46.0524 31.4195 45.9576 31.5162 45.8629 31.484C45.7049 31.4517 45.6734 31.2582 45.5786 31.1291C45.5786 30.9033 45.5154 30.613 45.7365 30.4517C45.7049 30.0001 45.9576 29.6775 46.1156 29.2582C46.2103 29.0646 46.3051 28.8065 46.5893 28.8065C47.0315 28.3549 47.7264 27.8388 47.8844 27.2259C48.1686 26.7743 48.7688 26.613 48.9899 26.1291C49.211 26.0646 49.3057 26.3227 49.4637 26.4517C49.4321 26.7098 49.211 26.9033 49.3057 27.0969ZM49.3057 23.8065C49.3373 24.2582 48.7688 24.5162 48.8635 24.9678C48.8635 25.0969 48.832 25.0969 48.7372 25.1936H48.7056C48.7372 25.5807 48.1686 25.742 48.0739 26.1291C47.5369 26.5162 47.0316 27.0646 46.6841 27.6453L46.463 27.8388C46.5262 28.0324 46.3051 28.1291 46.1787 28.2582C46.0524 28.2582 45.9576 28.3872 45.8313 28.3227C45.6102 28.0969 45.5154 27.7098 45.6102 27.3549C45.8945 27.1614 45.7681 26.742 46.0524 26.484C46.3051 25.7743 46.9368 25.2259 47.5053 24.7743C47.5369 24.5807 47.8212 24.484 47.8212 24.2259C47.9475 24.0324 48.2318 24.0324 48.2002 23.7743C48.7056 23.5485 48.4213 22.7743 48.9899 22.5807C49.2426 22.7098 49.4321 22.8388 49.4953 23.1291C49.4637 23.4194 49.211 23.5807 49.3057 23.8065ZM49.0531 20.5485C49.0215 20.8065 49.0531 21.0969 48.9267 21.2582C48.7056 21.4195 48.7372 21.742 48.5161 21.9678V22.0969C48.295 22.5162 47.7264 22.6775 47.6949 23.1936C47.2842 23.5162 47.0631 24.0646 46.8104 24.484C46.5262 24.6453 46.3367 25.1936 45.9892 24.9356C45.8629 24.8388 45.7049 24.9356 45.6102 24.742C45.6733 24.484 45.5786 24.2904 45.6418 23.9678C45.5786 23.5807 45.926 23.4195 46.0208 23.0646C46.3998 22.5807 46.6209 22.0001 47.0315 21.5485C47.3474 21.1291 47.8528 20.9356 48.0107 20.3549C48.1686 20.2259 48.2318 19.9678 48.4213 19.8065C48.4213 19.613 48.6109 19.5807 48.6424 19.4195C48.8004 19.3872 48.9267 19.3872 49.1162 19.3227L49.4005 19.7098C49.1794 20.0001 49.2426 20.2904 49.0531 20.5485ZM49.1478 16.2582C49.0531 16.613 49.3373 16.9356 49.0846 17.2259C49.2426 17.5162 48.8951 17.7098 48.9267 18.0001C48.7688 18.2259 48.6108 18.4517 48.4529 18.6775C47.8844 19.4517 47.1895 20.1291 46.6525 20.9356C46.5262 20.9356 46.4314 21.0646 46.3367 21.1936C46.2103 21.484 46.1471 21.8388 45.8313 21.9678C45.7049 22.0646 45.5786 21.9033 45.5154 21.8388C45.1996 21.6453 45.547 21.4517 45.5154 21.2259C45.6418 20.8711 45.4522 20.4195 45.7049 20.1291C45.7365 20.0001 45.6734 19.9356 45.6734 19.8065C46.1471 19.5162 46.1787 18.9356 46.5262 18.5162L47.7264 17.2259C47.916 17.2259 47.916 16.9678 48.0739 16.8388C48.1371 16.5485 48.295 16.2259 48.5793 16.0001C48.832 16.0001 49.0846 16.0001 49.1478 16.2582ZM48.9899 13.1291C49.1794 13.5485 48.9899 14.0001 48.9899 14.4195C48.4529 15.2582 47.5685 16.0324 47.0631 16.9356C46.5893 17.2259 46.3682 17.742 45.926 18.1614C45.7049 18.1291 45.4523 18.1936 45.3575 17.9356C45.4523 17.7098 45.168 17.2904 45.3891 17.0646C45.3891 16.7743 45.7365 16.5162 45.7681 16.1936C45.8629 15.9033 46.3051 15.9356 46.1787 15.5807C46.5262 15.3549 46.7157 14.9678 47.0947 14.742V14.6775C47.6317 14.3227 47.5685 13.5485 48.1686 13.3227C48.295 13.0969 48.4213 13.0969 48.5793 12.8711C48.8004 12.8388 48.9267 13.0001 48.9899 13.1291ZM48.8951 10.9033C49.0215 11.1614 48.7056 11.2904 48.7688 11.5807C48.295 12.2259 47.758 12.742 47.2211 13.3549C46.9368 13.4195 47 13.6775 46.8736 13.8711C46.6209 14.2582 46.2103 14.3872 46.084 14.8065L46.1156 14.8388C45.926 14.9356 45.8629 15.1936 45.5786 15.0969C45.2627 14.8711 45.4522 14.484 45.3891 14.1614C45.5154 13.9678 45.2627 13.8065 45.3575 13.5807C45.5786 13.2259 45.8629 12.7098 46.3051 12.484C46.5578 11.7743 47.1579 11.2904 47.6001 10.7098L47.6317 10.742C47.7896 10.7098 47.758 10.5162 47.8844 10.4517C47.916 10.484 47.9791 10.5162 48.0107 10.5807C48.1371 10.613 48.2318 10.4517 48.3897 10.484C48.6108 10.5807 48.8951 10.6453 48.8951 10.9033ZM45.8629 7.45171C46.2419 7.32268 46.4946 6.87106 46.9052 6.93558C47.0631 6.96784 47.1895 7.03235 47.379 7.0001C47.6001 7.29042 47.9791 7.09687 48.2318 7.32268C48.3582 7.48397 48.7056 7.45171 48.6424 7.74203C48.8951 7.87106 48.7688 8.06461 48.7688 8.29042C48.5793 8.58074 48.3582 8.54848 48.0423 8.54848C47.8844 8.48397 47.758 8.25816 47.5685 8.38719C47.3474 8.48397 47 8.54848 46.7789 8.45171C46.5262 8.58074 46.3051 8.32268 46.084 8.48397C45.926 8.38719 45.7049 8.38719 45.6102 8.16138C45.5154 7.87106 45.7681 7.67751 45.8629 7.45171ZM46.084 10.2582H45.9892C45.9576 10.1936 46.084 10.0969 46.1156 10.1614C46.1471 10.1936 46.1156 10.2259 46.084 10.2582ZM45.3259 10.8065L45.6734 10.5162C45.9576 10.5807 46.1787 10.4195 46.3682 10.7743C46.4314 10.742 46.4946 10.8388 46.5262 10.8711C46.3051 11.1936 46.1156 11.9033 45.547 11.7743C45.4207 11.8065 45.3259 11.7098 45.2627 11.6453C45.1996 11.3549 45.1364 11.0324 45.3259 10.8065ZM44.9785 35.4195C44.9785 35.484 44.8521 35.484 44.8521 35.4195H44.9785ZM44.6626 41.1291C44.7574 40.8388 44.6626 40.3872 44.7574 40.0646C44.5994 39.9033 44.8837 39.742 44.7258 39.5807C44.7889 38.8711 44.6626 38.0646 44.6942 37.3549C44.7889 37.1614 44.8521 37.0001 44.9785 36.8388C45.4207 36.7743 45.8629 36.9678 46.3682 36.8711C46.5893 36.613 46.9684 36.6775 47.1895 36.5807L47.3158 36.6775C47.6949 36.6453 48.1686 36.5485 48.4529 36.9678C48.9267 37.0324 49.4005 36.8711 49.9059 36.8711C49.8743 36.9356 49.9375 36.9356 49.9375 36.9678C50.2217 36.9678 50.1586 37.2582 50.3165 37.4195C50.1902 37.5485 50.2849 37.7743 50.0954 37.8065C50.3165 38.1291 50.0638 38.6775 50.2217 39.1614C50.3165 39.7743 50.2533 40.3872 50.2533 40.9678C50.0638 41.1614 50.3165 41.3549 50.2849 41.5807C50.3165 41.6775 50.3165 41.7743 50.3165 41.8711C50.2849 42.0001 50.1586 42.1936 50.0954 42.3227C49.8427 42.484 49.3689 42.3872 49.0215 42.4195C48.7688 42.4517 48.3897 42.3872 48.1371 42.484C47.758 42.3549 47.3158 42.4517 46.9368 42.3549C46.7157 42.484 46.5578 42.3872 46.3051 42.4517C46.0524 42.3549 45.7681 42.4195 45.5154 42.5162C45.3575 42.5162 45.1996 42.613 45.0732 42.613C44.3467 42.4195 44.7258 41.613 44.6626 41.1291ZM43.5571 43.9033C43.2728 43.7098 43.4623 43.5162 43.4307 43.2582C43.6834 43.0646 44.0941 43.2259 44.4099 43.1291C44.5047 42.9033 44.7889 43.0646 44.9153 43.0001C45.4522 42.9356 45.926 43.0324 46.463 42.9356C46.6841 43.0969 46.9684 42.8388 47.1895 42.9678C47.3158 43.0001 47.5685 42.9033 47.6633 43.0646L48.4213 43.0001C48.8004 42.9356 49.211 43.2904 49.6216 43.0646C49.8111 43.0646 50.127 42.9033 50.2217 43.1936C50.3481 43.1291 50.4428 43.0969 50.6008 43.0969C50.7587 43.1936 50.9482 43.2582 51.1377 43.3227C51.3904 43.5162 51.043 43.613 51.1061 43.8711C50.885 44.0646 50.506 43.8066 50.3165 44.0646C50.0638 44.0001 49.7164 44.0324 49.4953 44.0969C49.3057 43.9678 49.0215 44.1291 48.832 44.0646C48.7688 44.1614 48.674 44.0646 48.5793 44.0646C48.3582 43.9356 47.9475 43.9356 47.7264 44.0646C47.4106 43.8388 47.1895 44.1614 46.8736 44.0001C46.3998 43.9356 46.0208 44.1614 45.547 44.0001C45.01 44.0324 44.4099 44.2259 43.9045 43.9678C43.8098 44.0324 43.6518 44.0001 43.5571 43.9033ZM51.2009 45.1936C51.1061 45.1936 51.0114 45.1614 50.9166 45.2259C50.6955 44.742 50.0954 45.0324 49.6848 44.9678C49.3057 45.2582 48.8004 45.0969 48.3582 45.2259C48.0739 44.9678 47.7896 45.3872 47.4738 45.1936C46.9368 45.2582 46.4946 45.1291 45.9576 45.2259C45.6102 45.2582 45.168 45.0646 44.7889 45.2582C44.5678 45.1291 44.1888 45.2259 44.0941 44.8711C44.3152 44.484 44.8205 44.6775 45.168 44.6453C45.3891 44.613 45.7049 44.8066 45.9576 44.7098C46.0524 44.7743 46.084 44.7743 46.1787 44.742C46.3367 44.613 46.463 44.6775 46.6209 44.613C46.7473 44.7743 47 44.6775 47.1579 44.7098C47.1579 44.742 47.1895 44.742 47.2211 44.7743C47.4422 44.742 47.5053 44.5807 47.7896 44.5807C48.2318 44.7743 48.5793 44.7098 49.0846 44.613C49.3057 45.0001 49.7479 44.6453 50.0322 44.6775C50.3481 44.8388 50.6639 44.7098 51.0114 44.7098C51.1377 44.742 51.3273 44.742 51.3588 44.9033C51.3588 44.9678 51.3273 45.0324 51.2009 45.1936Z" fill="currentColor"/>
<path d="M68.6049 32.387C68.5102 32.2902 68.447 32.1612 68.447 32.0644C68.3838 31.9676 68.3523 31.8708 68.2259 31.7741C68.1943 31.4838 67.8469 31.3225 67.7205 31.0321C67.5942 30.9676 67.8153 30.8386 67.6258 30.8386C67.6574 30.516 67.3415 30.2902 67.3415 29.9999C67.1836 29.9676 67.3099 29.8063 67.2152 29.7096C67.3415 29.0967 66.7098 28.8386 66.6782 28.2579C66.236 27.9676 66.2992 27.4192 66.1096 27.0644C65.9201 26.9354 65.9833 26.6128 65.7306 26.516C65.5411 26.1289 65.5095 25.7741 65.4463 25.387C65.2252 24.9354 64.9725 24.5805 64.7199 24.1289C64.7199 24.0321 64.7199 23.9354 64.6251 23.9031C64.5935 23.7418 64.5935 23.6128 64.4988 23.4838C64.5303 23.1934 64.4356 22.9354 64.2777 22.7418C64.3408 22.387 63.867 22.4192 63.8986 22.1289C63.6144 22.0644 63.7091 21.6773 63.488 21.5805C63.2037 21.6128 62.951 21.4838 62.6984 21.2902L61.8771 21.2579C61.4665 21.2257 61.1506 21.4515 60.898 21.7741C60.9295 21.8709 60.8348 21.9031 60.7716 21.9676C60.5189 22.0967 60.4873 22.4192 60.361 22.6773C60.2662 22.7741 60.2346 22.9031 60.1715 22.9676V23.2902C59.8872 23.3547 60.2031 23.5805 60.0135 23.6773C60.0451 24.0967 59.6977 24.387 59.7293 24.7741C59.7924 24.7418 59.445 25.3547 59.445 25.3547C59.445 25.6773 59.1291 25.8386 59.1291 26.1612C58.9712 26.3547 58.8764 26.6128 58.9396 26.8709C58.7501 27.1612 58.7185 27.516 58.6238 27.8063C58.6238 28.1612 58.1816 28.4192 58.2447 28.8386C58.2131 28.9354 58.1816 29.0644 58.1184 29.1289C58.2131 29.3547 57.9605 29.4192 57.992 29.5805C57.9605 30.0321 57.613 30.2257 57.5814 30.645C57.5182 30.8063 57.3919 30.9676 57.3603 31.1934C57.4867 31.516 56.9813 31.5483 57.1392 31.8709C56.8549 31.9354 57.1076 32.2579 56.9181 32.3547C56.9497 32.645 56.8234 33.0321 57.0445 33.2257C57.1392 33.5805 57.5183 33.516 57.8341 33.5805C58.0552 33.5805 58.2763 33.7096 58.4658 33.5805C58.7817 33.6773 58.8449 33.2902 59.1291 33.387C59.445 33.3225 59.4134 32.9354 59.4766 32.6773H59.5082L59.5398 32.1612H59.5713C59.6661 32.0967 59.5082 32.0321 59.6345 31.9676C59.6345 31.5805 59.8556 31.387 59.8872 31.0321C60.1715 30.8063 60.0767 30.4515 60.3294 30.1934C60.2662 29.9999 60.4242 29.9031 60.5189 29.8063C61.0559 29.6773 60.6453 29.3225 61.7192 29.4192C61.7824 29.4192 61.9087 29.4515 62.035 29.4192C62.1298 29.5805 62.572 29.387 62.6352 29.5805C62.7615 29.5483 62.9195 29.645 63.0142 29.4838C63.1406 29.516 63.2669 29.4515 63.3617 29.5483C63.6459 29.645 64.025 29.4192 64.3092 29.6128C64.5303 30.0321 65.0357 30.1934 65.0989 30.7096C65.1305 30.9999 65.32 31.2579 65.3516 31.5805C65.5727 31.8709 65.5411 32.2579 65.7938 32.516C65.7306 32.645 65.9201 32.7096 65.9833 32.8063C66.2044 33.7741 67.2467 33.2902 67.9732 33.4838C68.1943 33.5483 68.2259 33.516 68.3838 33.387C68.7313 33.1612 68.5734 32.7096 68.6049 32.387ZM66.6782 32.1289C66.2044 31.9354 66.3939 31.4838 66.0781 31.2257C66.1096 30.9031 65.6359 30.9354 65.7622 30.5805C65.5095 30.2257 65.4779 29.9354 65.2884 29.516C65.4148 29.2257 65.0041 29.1289 65.0357 28.9031C64.9094 28.7418 64.8462 28.645 64.6567 28.5483C64.1513 28.645 63.6775 28.6128 63.2037 28.7418C62.951 28.8386 62.6668 28.516 62.4773 28.7741C62.2246 28.645 61.9403 28.8708 61.5928 28.7741C61.4665 28.5805 60.9927 28.645 60.6769 28.5483C60.4873 28.7418 60.361 28.387 60.1715 28.5805C60.361 28.9354 59.824 29.0644 59.7924 29.3225C59.7609 29.516 59.5713 29.5805 59.6345 29.7741C59.3502 30.0967 59.2871 30.5483 59.2239 30.9031C59.0975 31.0321 59.1291 31.1612 59.0976 31.2579C58.9396 31.4515 58.8133 31.7096 58.6238 31.9031C58.6553 31.9676 58.5922 32.0321 58.5606 32.0644C58.4342 32.0967 58.2763 31.9999 58.2131 32.1289C58.0236 32.0321 58.0552 31.8386 58.0552 31.6773C58.15 31.387 58.1816 31.1289 58.4342 30.9354C58.4974 30.7096 58.4658 30.516 58.5922 30.2902C59.0975 29.7096 58.9396 28.8386 59.4766 28.2579C59.445 28.0644 59.6029 27.9676 59.5713 27.7741C59.7924 27.4838 59.9504 26.9999 59.8872 26.6128C60.0451 26.4838 60.2031 26.3225 60.2031 26.0644L60.2978 25.9676C60.2978 25.8063 60.4873 25.6773 60.4557 25.4838C60.3926 24.645 61.0243 24.2257 61.1506 23.4515C61.5613 23.1612 61.2138 22.6773 61.6876 22.4192C62.1614 22.5483 62.7615 21.8063 62.9826 22.5483C62.8247 22.9031 63.2669 22.9354 63.2353 23.2579C63.4248 23.387 63.6775 23.645 63.6459 23.8709C63.8355 23.9999 63.7407 24.2257 63.9302 24.3225C64.025 24.516 64.2145 24.6128 64.2145 24.8708C64.7199 25.0967 64.3724 25.6773 64.7514 25.9676C64.6567 26.1612 64.941 26.2579 64.8462 26.4838C65.0989 26.8708 65.1937 27.3225 65.5095 27.6773V27.7741C65.4779 27.7418 65.4463 27.8063 65.4148 27.8063C65.3832 27.9999 65.6359 27.9999 65.6674 28.1612C65.6043 28.387 65.9833 28.516 65.857 28.8063L65.8254 28.8708C66.1412 29.0321 66.0465 29.3547 66.2676 29.5805C66.2992 30.0321 66.8045 30.3225 66.8361 30.7741C67.0888 31.1289 67.152 31.4515 67.2152 31.8709C67.0888 32.0967 66.8993 32.1934 66.6782 32.1289Z" fill="currentColor"/>
<path d="M28.4906 21.8062C28.1116 21.5159 27.6694 21.6127 27.2272 21.7095C27.0061 21.9998 26.6586 21.903 26.5007 22.2578C26.3743 22.6449 25.9637 22.903 25.9637 23.3869C25.6795 23.7417 25.5847 24.2256 25.5215 24.6772C25.3952 24.8708 25.2688 25.0643 25.2373 25.2901C24.953 25.4837 25.1109 25.774 24.8582 25.9998C24.7319 26.3546 24.5739 26.7095 24.3213 27.032C24.4792 27.4837 23.9106 27.6449 24.1317 28.0966C24.0054 28.2901 24.0686 28.6449 23.9106 28.8385C23.7527 29.1288 23.5632 29.4837 23.3421 29.774C23.121 29.7417 22.8683 29.8708 22.7735 29.6449C22.6788 29.2256 22.205 28.9675 22.2682 28.5159C22.0155 28.3224 22.205 27.9353 21.9839 27.7417C21.9207 27.5482 21.7944 27.2901 21.7628 27.0966C21.8891 26.8708 21.4785 26.8062 21.6364 26.5804C21.4469 26.4514 21.5101 26.2256 21.4153 26.032C21.3838 25.7095 20.9731 25.5482 21.0363 25.1611C20.8468 25.032 20.91 24.8708 20.91 24.6449C20.4993 24.2578 20.6257 23.5804 20.1835 23.1933L20.2151 23.1611L20.1519 23.0643C20.2151 22.8708 19.9624 22.774 20.0256 22.5159C19.6781 22.2256 19.6781 21.8708 19.2675 21.6449C19.2359 21.3546 19.0148 21.5482 18.8885 21.3224C18.7305 21.3869 18.7305 21.1611 18.5726 21.2256C18.2252 21.4191 17.7198 21.3869 17.5618 21.8385C17.4355 22.0966 17.4671 22.3869 17.625 22.6127C17.625 22.8062 17.6882 23.0966 17.7829 23.2578C18.162 23.2578 17.8777 23.7095 18.162 23.8062C18.2883 24.0643 18.1936 24.3546 18.4463 24.5482C18.3199 24.9998 18.7937 25.2578 18.7305 25.6772C18.7937 25.8707 18.9832 26.032 18.9516 26.2256C19.078 26.5159 19.3307 26.8385 19.3307 27.1611C19.6149 27.4514 19.6465 27.8062 19.8676 28.1288C20.0571 28.4837 19.9308 28.9998 20.3414 29.2578C20.2151 29.6127 20.5625 29.8385 20.752 30.1288C20.6889 30.2256 20.8468 30.2901 20.8152 30.3546C20.91 30.6127 21.0363 30.903 21.0995 31.1288C21.0679 31.4191 21.3838 31.6127 21.4469 31.8385C21.4785 32.2256 21.9207 32.5482 21.826 32.9998C22.1102 33.4191 22.5524 33.5482 22.8999 33.7417C23.3421 33.7417 23.9738 33.9353 24.1633 33.3224C24.6371 33.1288 24.5108 32.5804 24.795 32.2901C24.8582 32.1933 24.7635 31.9998 24.8898 31.9675C24.9846 31.8707 24.9214 31.6127 25.0477 31.5159C25.2373 31.2256 25.1425 30.7417 25.4584 30.4837C25.2688 30.1933 25.6795 30.0966 25.6479 29.8707C26.0585 29.6772 25.7426 29.1288 26.1532 28.903C26.1217 28.6449 26.5007 28.5804 26.4059 28.2901H26.4375C26.3743 28.0966 26.5954 27.9675 26.5639 27.7417C26.5323 27.4514 26.8481 27.3224 26.9429 27.0643C26.9745 26.9353 26.785 26.903 26.8797 26.774C27.1956 26.6449 27.164 26.3224 27.2588 26.032C27.2903 25.9998 27.3219 25.903 27.3851 25.9353V25.8062C27.8589 25.5804 27.6694 25.0643 27.8589 24.7095C28.0484 24.4191 28.1432 24.0643 28.3327 23.7417C28.3643 23.5482 28.459 23.3546 28.617 23.2256C28.617 23.0643 28.6801 22.903 28.7749 22.774C28.6485 22.4191 28.8065 22.032 28.4906 21.8062ZM26.6902 27.0643C26.6586 27.032 26.5323 26.9353 26.6586 26.8708H26.6902V27.0643ZM26.8797 24.3869C26.8797 24.3546 26.8481 24.3546 26.8481 24.3224H26.8166C26.8481 24.774 26.6586 25.1611 26.4691 25.5482C26.1848 25.9675 26.0901 26.5159 26.0901 26.9998C25.9637 27.4514 25.5531 27.8385 25.3004 28.1933C25.1741 28.5804 25.2373 28.9998 24.953 29.3224C24.8266 29.5159 24.795 29.774 24.7003 30.032C24.8266 30.3224 24.416 30.3224 24.5108 30.5804C24.3528 30.6127 24.2265 30.774 24.1317 30.903C24.1633 31.1611 23.9106 31.2578 24.0054 31.4514C23.9422 31.903 23.7843 32.2901 23.4053 32.6127C22.8999 32.5804 22.3629 32.7095 22.1734 32.1288C22.1102 31.9353 22.0786 31.6772 21.8575 31.5159C21.7628 30.9675 21.3522 30.5159 21.4153 29.903C21.3522 29.6127 21.0363 29.3869 21.0679 29.032C20.8152 28.6772 20.7204 28.2901 20.4362 27.9675C20.2782 27.5804 20.0571 27.1611 19.9624 26.7095C19.9624 26.4514 19.7729 26.2578 19.7413 26.032C19.6149 25.774 19.5834 25.4514 19.457 25.1611C19.2359 25.032 19.5202 24.6449 19.1727 24.5159C19.1096 24.2578 19.078 23.903 18.8885 23.6449C18.8253 23.4514 18.6989 23.2578 18.6674 23.032C18.9516 22.7095 19.1096 23.1288 19.2675 23.3224C19.2991 23.6127 19.7729 23.8385 19.5202 24.1933C19.7413 24.2901 19.4886 24.3869 19.5518 24.5804C19.9308 24.6772 19.7097 25.032 19.9624 25.2578C20.1835 25.4837 20.2151 25.774 20.373 26.032C20.4362 26.4191 20.6257 26.7417 20.8468 27.0966C20.8152 27.4514 21.3206 27.5804 21.1627 27.9675C21.2574 28.1933 21.2574 28.4837 21.4469 28.6772C21.4785 28.9353 21.6996 29.0966 21.7312 29.3224C21.6364 29.774 22.2366 29.8062 22.0786 30.2578C22.4577 30.4514 22.205 30.8385 22.5524 30.9998C22.4893 31.2578 22.8051 31.3224 22.9315 31.4514C23.1526 31.4837 23.3737 31.2578 23.5 31.032C23.4684 30.6449 24.1002 30.5159 23.9422 30.0643C24.2897 29.8707 23.9422 29.2901 24.3213 29.032C24.5108 28.8062 24.4792 28.5159 24.6687 28.3224C24.6055 28.1611 24.8582 28.1288 24.8898 27.9353C24.9214 27.6449 25.1741 27.4837 25.1425 27.1933C25.2373 26.6449 25.7742 26.2256 25.9637 25.6772C25.9637 25.4837 26.0269 25.2901 25.9953 25.0643C26.1848 24.8707 26.1848 24.6127 26.2796 24.3546C26.5007 24.1611 26.4059 23.8062 26.627 23.6127C26.8481 23.5482 26.785 23.0966 27.0692 23.3224C27.0377 23.5159 27.1008 23.7095 27.1956 23.8708C27.0692 23.9998 27.1324 24.3224 26.8797 24.3869Z" fill="currentColor"/>
<path d="M36.2921 22.8711C36.229 22.613 35.8815 22.5485 35.7867 22.355C35.5025 22.3872 35.3445 21.9356 35.0603 21.9034C34.9339 21.8389 34.776 21.8711 34.6812 21.9356C34.5549 21.8389 34.397 21.8066 34.2706 21.6453C34.0811 21.613 33.7968 21.5485 33.6389 21.7098C33.2599 21.6453 32.9124 21.7743 32.6597 22.0324C32.4386 21.9679 32.3123 22.2259 32.1544 22.3227C31.8385 22.4195 31.6174 22.613 31.3015 22.6776C31.0173 23.1292 30.5119 23.484 30.4803 24.0324C30.1328 24.1937 30.3224 24.5808 30.196 24.8389C29.9749 25.2259 29.8486 25.6453 29.817 26.0647C29.7854 26.2582 29.817 26.5163 29.6906 26.6776C29.6906 27.0324 29.817 27.4518 29.6591 27.7743C29.7854 28.613 29.4695 29.613 29.9433 30.355C29.9117 30.5163 29.9749 30.6453 30.0697 30.7743C30.1013 31.2582 30.2592 31.7098 30.7014 32.0324C30.6698 32.3227 31.0804 32.3227 31.0173 32.6453C31.0488 32.6776 31.112 32.8066 31.2068 32.7743C31.2384 32.8389 31.3647 32.8711 31.3331 32.9679C31.3647 33.0969 31.491 33.0647 31.5858 33.0647C31.7121 33.226 31.9333 33.2582 32.0596 33.355C32.3439 33.3872 32.5334 33.5485 32.8492 33.5808C32.9756 33.7098 33.2283 33.613 33.3862 33.8066C33.6389 33.7421 33.9548 33.9679 34.2706 33.8066C34.4601 33.3872 34.9971 33.6776 35.2498 33.5485C35.3761 33.355 35.5972 33.5163 35.7236 33.3227C35.9447 33.1292 36.1974 32.9356 36.4816 32.8066C36.8607 32.6776 36.9554 32.226 37.1765 32.0324C37.524 31.6776 37.1449 31.226 37.2397 30.7421C37.0818 30.5485 37.2081 30.1937 37.0186 30.0324C36.9238 29.9679 36.8607 29.8066 36.7027 29.8711C36.3869 29.7098 35.9763 29.8389 35.6288 29.8711C35.3761 30.0324 35.3761 30.2905 35.313 30.5163C35.2182 30.6453 35.0603 30.6776 35.0919 30.8066C34.8708 31.2905 34.3338 31.3227 33.86 31.2582C33.7337 31.1937 33.6073 31.4195 33.5126 31.2582H33.2915C33.0072 31.1937 32.6597 31.0324 32.565 30.7098C32.3439 30.5485 32.4702 30.2582 32.1859 30.0969C32.2491 29.9356 32.0912 29.9034 32.0596 29.8066C32.0596 29.2905 31.7121 28.7098 31.9333 28.1937C31.7753 27.9679 31.9964 27.7743 31.8385 27.5808C31.9017 27.1937 31.7753 26.7098 31.9333 26.3227C32.0596 26.1937 31.9017 25.9356 32.0596 25.9034C32.1228 25.5485 32.3755 25.1937 32.6913 25.0001C33.0703 24.9679 33.2599 24.3872 33.7021 24.5163C34.0495 24.3227 34.5549 24.484 34.8392 24.7098C35.0919 24.6453 35.1234 24.9356 35.3445 25.0001C35.5656 25.3872 35.9447 25.8711 36.4816 25.8066C36.608 25.613 36.7659 25.6776 36.8923 25.5808C37.2397 25.613 37.2081 25.1614 37.4292 25.0324C37.5556 24.4518 37.2713 24.0647 37.1134 23.613C36.7975 23.2905 36.5764 23.1292 36.2921 22.8711ZM36.1974 24.355C36.0394 24.3872 35.9131 24.7098 35.7236 24.484C35.4393 24.2582 35.0919 23.7421 34.6181 23.8711C34.4285 23.6453 34.1127 23.7743 33.9232 23.5808C33.6389 23.7098 33.323 23.5808 33.1019 23.8389C32.7545 23.9034 32.5334 24.2259 32.1859 24.2905C31.9017 24.4195 31.9964 24.7421 31.7121 24.8389C31.5858 25.1614 31.2384 25.3872 31.3331 25.8066C31.3647 25.9034 31.3015 25.9679 31.2068 26.0001C31.2384 26.8066 30.9857 27.5808 31.2068 28.355C31.0488 28.5163 31.2699 28.6453 31.2384 28.8389C31.1752 29.0647 31.2699 29.3872 31.112 29.613C31.3331 30.0647 31.3015 30.613 31.7437 30.9679C31.7437 31.1614 31.9017 31.1292 31.9964 31.2582L32.1544 31.226C32.1859 31.484 32.3755 31.6776 32.6281 31.8066C32.8492 31.8389 33.0388 31.8711 33.2599 31.9679C33.5757 31.7743 33.7968 32.2582 34.239 32.0969C34.2706 32.226 34.397 32.1292 34.4601 32.1614C34.6812 32.1292 34.9339 32.0324 35.0919 31.8711C35.3761 31.7421 35.5656 31.484 35.7552 31.2582C35.8815 31.2582 36.0394 31.1937 36.1658 31.3227C36.2605 31.355 36.2289 31.484 36.2289 31.5808C35.9447 32.1937 35.3445 32.1937 34.9971 32.7098C34.6181 32.9356 34.1127 32.8389 33.7021 32.8389C33.5441 32.613 33.2283 32.6453 33.0388 32.5485C32.944 32.355 32.6913 32.5485 32.5966 32.355C32.0912 32.3227 31.5858 31.9034 31.4279 31.4518C31.1436 31.3227 31.3331 31.0001 31.0804 30.8711C31.0804 30.6453 30.8909 30.4195 30.9541 30.1292C30.733 29.9356 30.7962 29.5808 30.6698 29.355C30.8277 29.1937 30.4487 29.0969 30.6066 28.9356C30.3855 28.8389 30.6066 28.5808 30.4803 28.3872C30.5435 27.9356 30.6066 27.355 30.6698 26.8711C30.5119 26.3227 30.9225 25.9679 30.8593 25.4195C31.0488 24.8711 31.3331 24.355 31.649 23.8389C31.9017 23.6453 31.8701 23.2259 32.2807 23.2582C32.4702 23.2259 32.5966 23.0969 32.7545 22.9679C32.9756 22.8389 33.2283 22.8389 33.481 22.8066C33.7021 22.7098 34.0495 22.7743 34.2706 22.6453C34.5549 22.7098 34.8076 22.8066 35.0919 22.9356C35.5341 23.3227 36.2605 23.6453 36.1974 24.355Z" fill="currentColor"/>
<path d="M63.7406 26.3551C63.8669 26.1938 63.6458 26.0647 63.6142 25.968C63.6774 25.7422 63.3931 25.6776 63.3931 25.4196C63.2352 25.1293 63.2668 24.7422 62.9825 24.5164C62.9509 24.2905 62.8246 24.1293 62.793 23.9034C62.6666 23.8712 62.5403 23.7099 62.3192 23.7099C62.0033 23.5809 62.0981 24.0325 61.877 23.9357L61.8138 24.0002C61.5927 24.2583 61.5295 24.5809 61.498 24.9034C61.1505 24.9357 61.4348 25.3551 61.1505 25.4518C61.1821 25.6454 61.0242 25.7422 61.0558 25.9035C60.7715 26.0325 61.0873 26.4841 60.7715 26.5809C60.7399 26.7099 60.8662 26.7099 60.8978 26.7744C60.7715 26.8389 60.7715 26.968 60.6451 27.0647C60.7083 27.3228 60.5188 27.4518 60.5188 27.6776C60.582 27.8712 60.8978 27.8067 61.0558 27.8389C61.3716 27.968 61.8138 27.9034 62.0981 27.8712C62.2244 27.8389 62.414 27.968 62.414 27.7744C62.4455 27.7744 62.4771 27.7422 62.5087 27.7744C62.5087 27.8389 62.6666 27.7744 62.6035 27.8067C62.6351 27.7744 62.8562 27.9357 63.1404 27.8712C63.5511 27.7744 64.0248 27.9357 64.4355 27.7422C64.5618 27.5164 64.3091 27.2905 64.3407 27.0325C63.9617 26.8712 64.088 26.5486 63.7406 26.3551ZM63.0457 27.2583C62.8562 27.1938 62.8562 27.3873 62.6982 27.4518C62.4455 27.4196 62.2244 27.6131 62.0033 27.3873C61.877 27.4196 61.7822 27.3873 61.7191 27.3228C61.7822 27.1293 61.5927 27.0325 61.4664 26.9357C61.7507 26.6776 61.7191 26.2905 62.0033 26.0647C62.0349 25.7744 62.0033 25.4518 62.256 25.2905C62.3824 25.3228 62.414 25.1938 62.5403 25.2583C62.7614 25.4518 62.793 25.7744 62.9825 25.968C63.0773 26.226 63.172 26.3551 63.2036 26.6454C63.33 26.8389 63.1404 27.0647 63.0457 27.2583Z" fill="currentColor"/>
<path d="M93.1472 24.5806L48.0107 0.258065C47.6949 0.0967742 47.3474 0 46.9684 0C46.5894 0 46.2735 0.0967742 45.9261 0.258065L0.852822 24.5806C-0.284274 25.1935 -0.284274 26.8387 0.852822 27.4194L45.9892 51.7419C46.3051 51.9032 46.6525 52 47.0316 52C47.4106 52 47.7265 51.9032 48.0739 51.7419L93.1472 27.4194C94.2843 26.8065 94.2843 25.1613 93.1472 24.5806ZM92.547 26.2903L47.4106 50.6129C47.2843 50.6774 47.1263 50.7097 46.9684 50.7097C46.8105 50.7097 46.6526 50.6774 46.5262 50.6129L1.42137 26.2903C1.29503 26.1936 1.26344 26.0968 1.26344 26C1.26344 25.9032 1.29503 25.7742 1.42137 25.7097L46.5578 1.3871C46.6841 1.32258 46.8421 1.29032 47 1.29032C47.1579 1.29032 47.3159 1.32258 47.4422 1.3871L92.547 25.7097C92.6734 25.7742 92.705 25.9032 92.705 26C92.7366 26.0968 92.705 26.1936 92.547 26.2903Z" fill="currentColor"/>
</svg>
