<svg width="240" height="28" viewBox="0 0 329 39" xmlns="http://www.w3.org/2000/svg">
<path d="M102.1 19.4C101.9 20 101.8 20.6 101.6 21.2C100.7 23.6 98.5 27.2 93.6 27.2C87.6 27.2 83.6 19.7 83.6 14.1C83.6 9.2 85.6 0.200001 93.7 0.700001C95.2 0.800001 96.4 1.1 97.4 1.6C100.6 3.2 101.3 6 101.4 6.5C101.4 6.5 101.4 6.5 101.4 6.6H101.7V4C101.7 3.8 101.4 3.4 101 3C99.8 1.8 96.9 0 93.1 0C93 0 92.8 0 92.7 0C84.9 0.2 79 6.7 79 14.1C79 18.5 81 21.8 83.5 24.3C86.3 26.9 89.5 28 92.8 28C96.9 28 102.2 25.5 102.2 25.3V19.4H102.1V19.4Z" fill="currentColor"/>
<path d="M112.7 26.9V0.599974H107V0.799975C107.2 0.799975 109.3 1.19998 109.3 2.49998V26.8C109.3 27.5 108.6 27.7 108.4 27.7V28H113.5V27.8C113.3 27.7 112.7 27.6 112.7 26.9Z" fill="currentColor"/>
<path d="M309.899 26.9V0.599974H304.199V0.799975C304.399 0.799975 306.499 1.19998 306.499 2.49998V26.8C306.499 27.5 305.799 27.7 305.599 27.7V28H310.699V27.8C310.599 27.7 309.899 27.6 309.899 26.9Z" fill="currentColor"/>
<path d="M22.9 0.0999741V0.299975C24 0.299975 24.6 0.999975 24.2 1.79997L16.2 22.1L8.2 2.29997C7.6 0.799975 8.60001 0.299975 9.90001 0.299975V0.0999741H-1.2207e-05V0.299975C1.59999 0.299975 3.4 0.999977 4.2 2.89998L13.9 27.1H14.9L24.8 1.99998C25.2 0.999976 26.4 0.299975 27.4 0.299975V0.0999741H22.9Z" fill="currentColor"/>
<path d="M322.1 28C318.9 28 315.9 25.9 315.9 25.8V22.3H316.1C316.8 24.7 318.3 27.6 322.3 27.6C324 27.6 325.5 26.7 325.5 24.5C325.5 22.6 324.3 22 322.9 21.6L319.8 20.6C318.2 20.1 315.9 19.3 315.9 16C315.9 13.2 318.3 11 321.6 11C324 11 326.2 12.4 326.2 12.6V15.8V15.8C325.5 13.5 324.5 11.5 321.8 11.5C319.3 11.5 317.8 12.7 317.8 14.5C317.8 16.1 319 16.8 321.3 17.5L324.2 18.4C326.6 19.2 328.4 20.5 328.4 22.8C328.4 25.4 326.1 28 322.1 28Z" fill="currentColor"/>
<path d="M241.399 26.1L231.299 0.800048H230.399L220.199 26.6C219.799 27.6 218.599 27.7 218.199 27.7V28H222.099V27.8001C221.799 27.8001 220.499 27.6 220.899 26.5L224.299 17.8H233.799L237.099 26.1C237.599 27.4 236.199 27.7 235.899 27.7V28H243.899V27.8001C243.199 27.7001 241.799 27.2 241.399 26.1ZM233.299 16.5H224.899L229.099 5.80005L233.299 16.5Z" fill="currentColor"/>
<path d="M257.199 10.9C253.899 10.9 252.499 13.6 251.999 15.1H251.899V11.3H247.699V11.5C247.899 11.5 248.599 11.7 248.599 12.2V27C248.599 27.5 247.999 27.7 247.699 27.7V28H252.799V27.8C252.599 27.8 251.999 27.7 251.999 27.2V18.4C251.999 14.2 254.399 11.7 256.099 11.7C256.999 11.7 257.499 12.3 257.499 13.3C257.499 14.6 257.499 14.2 257.499 15.1C257.499 15.7 257.999 16.2 259.099 16.2C260.099 16.2 260.699 15.8 260.699 15.1C260.699 12.1 259.699 10.9 257.199 10.9Z" fill="currentColor"/>
<path d="M44.0004 26.8001C43.4004 27.2001 42.4004 27.2 42.0004 27.1C41.2004 26.9 40.6004 26.5 40.6004 25.1V16C40.6004 13.3 38.9004 10.8 34.1004 10.8C30.1004 10.8 27.2004 12.8 27.2004 15C27.2004 15.9 27.2004 16.6 28.9004 16.6C29.9004 16.6 30.4004 16.0001 30.4004 15.4001C30.4004 15.0001 30.4004 14.6 30.4004 13.7C30.4004 11.9 32.3004 11.4001 34.0004 11.4001C36.6004 11.4001 37.3004 12.9 37.3004 15.3C37.3004 16.1 37.3004 17.4 37.3004 18.7H37.2004C33.5004 18.5 26.9004 19.5 26.9004 24.2C26.9004 26.7 28.7004 28 31.2004 28C33.5004 28 35.8004 26.9 37.2004 25.2V25C37.2004 25.1 37.2004 25.1 37.2004 25.1C37.6004 26.9 38.6004 28 41.1004 28C42.4004 28 43.4004 27.5 44.1004 27.1L44.0004 26.8001ZM37.1004 24.1C36.6004 25.4 35.4004 26.4001 33.9004 26.4001C32.0004 26.4001 30.3004 25.2 30.3004 22.8C30.3004 19.6 34.8004 19.1 37.4004 19.1V21C37.4004 21.1 37.4004 21.2 37.4004 21.2C37.4004 21.8 37.4004 22.3 37.4004 22.8C37.4004 23.3 37.3004 23.8 37.1004 24.1Z" fill="currentColor"/>
<path d="M64.5008 26.9V15.9C64.5008 12.4 62.1008 10.9 58.6008 10.9C58.4008 10.9 58.1008 10.9 57.9008 10.9C57.8008 10.9 57.8008 10.9 57.7008 10.9C57.5008 10.9 57.4008 10.9 57.2008 11C57.1008 11 57.0008 11 57.0008 11C56.8008 11 56.7008 11.1 56.5008 11.1C56.4008 11.1 56.4008 11.1 56.3008 11.1C56.1008 11.2 56.0008 11.2 55.8008 11.3H55.7008C55.0008 11.6 54.3008 12 53.8008 12.5C53.7008 12.6 53.6008 12.7 53.5008 12.8C53.2008 13.1 52.9008 13.5 52.7008 13.8C52.7008 13.8 52.7008 13.8 52.7008 13.9C52.6008 14 52.6008 14.1 52.5008 14.2V11.1H51.9008H51.5008H47.8008V11.3C47.9008 11.3 48.6008 11.4 48.6008 12V27C48.6008 27.6 47.9008 27.8 47.8008 27.8V28H52.8008V27.8C52.7008 27.8 52.0008 27.5 52.0008 26.9V18.5C52.0008 18.2 52.0008 17.9 52.0008 17.7C52.0008 17.6 52.0008 17.5 52.0008 17.4C52.0008 17.2 52.0008 17.1 52.1008 16.9C52.1008 16.8 52.1008 16.7 52.2008 16.7C53.0008 13.6 55.7008 12 57.8008 12C60.3008 12 60.9008 12.7 61.1008 15.1C61.2008 15.5 61.2008 16 61.2008 16.5V27C61.2008 27.7 60.5008 27.9 60.3008 27.9V28H65.4008V27.8C65.1008 27.7 64.5008 27.6 64.5008 26.9Z" fill="currentColor"/>
<path d="M167.801 0C165.501 0 163.301 1.4 162.001 3.1C161.001 4.3 160.201 5.8 160.201 9.3V10.3C160.001 11.1 159.201 12.2 158.301 12.2C158.301 12.2 159.701 12.2 160.201 11.7V11.8V12V27.1C160.201 27.6 159.601 27.8 159.401 27.8V28H164.401V27.8C164.201 27.8 163.601 27.7 163.601 27.2V12.4H167.501V11.4H163.601V6.2C163.601 2.4 165.401 0.599998 167.601 0.599998C168.601 0.599998 169.801 0.999999 169.801 2.3C169.801 3.2 169.801 3.4 169.801 4.3C169.801 4.9 170.301 5.4 171.401 5.4C172.401 5.4 173.001 5 173.001 4.3C173.001 2 172.101 0 167.801 0Z" fill="currentColor"/>
<path d="M207.8 16.6V16.3H204H203.3H202.9H202.3C202.3 16.3 202.2 19.8 200.4 22.9C200.3 23.1 200.1 23.3 200 23.5C198.3 21.6 197 19.9 195.2 17.7L193.8 16C195.2 15.6 196.5 15.1 197.6 14C197.7 13.9 197.9 13.7 198 13.6C198 13.5 198.1 13.5 198.1 13.4C198.3 13.1 198.4 12.8 198.5 12.5C198.5 12.5 198.5 12.5 198.5 12.4C198.5 12.3 198.5 12.2 198.5 12.2C198.5 12.1 198.5 11.9 198.5 11.8C198.5 9.10002 196.6 7.40003 193.3 7.40003C190.3 7.40003 187.9 9.40003 187.9 12.4C187.9 14.1 188.8 15.3 189.5 16.1C189.5 16.1 189.5 16.1 190 16.7C189.9 16.7 189.7 16.8 189.6 16.8C189.4 16.8 189.2 16.9 189 17C187.3 17.5 184.4 19.1 184.4 22.4C184.4 24.8 186 28.6 192.3 28.4C195.4 28.3 196.8 27.4 198.1 26.3C198.2 26.4 198.2 26.4 198.3 26.5C199.4 27.6 200.6 28.2 202.7 28.2C204.6 28.2 205.8 27.4 206.7 26.6L206.5 26.3C204.3 27.8 202.2 26.2 200.1 24C200.8 22.9 202 20.9 202.6 20.2C204.1 18.5 206.2 16.6 207.8 16.6ZM192.3 14.2C189.1 10.4 190.9 7.90003 192.6 7.70003C192.7 7.70003 192.8 7.70003 192.9 7.70003C194.9 7.70003 196.1 9.80003 196.1 11.7C195.9 14 195.2 14.9 193.5 15.6C193.1 15.1 192.7 14.7 192.3 14.2ZM197.7 26.1C197.5 26.2 197.3 26.4 197.1 26.5C197 26.6 196.9 26.6 196.8 26.7C196.8 26.7 196.7 26.7 196.7 26.8C194.2 28.1 191.7 27.2 190.2 25.8C189 24.4 188.1 22.7 188.1 21.5C188.1 20.8 188.2 20.2 188.4 19.7C188.7 19 189.1 18.5 189.6 18.1C190 17.8 190.4 17.6 190.8 17.4C191.8 18.6 193.9 21 198.1 25.9L198.2 26C197.9 25.9 197.8 26 197.7 26.1Z" fill="currentColor"/>
<path d="M133 24.4C132.5 25.3 132 25.9 131.5 26.4C130.7 26.9 129.8 27.2 128.8 27.2C125.6 27.2 123.1 24.1 122.6 20.6C122.5 19.9 122.4 18.9 122.4 18.3H134.6V18.2C134.6 14.3 132.1 11.9 128.7 11.1H128.6C128.1 11 127.6 10.9 127.1 10.9C126.9 10.9 126.7 10.9 126.5 10.9C125.9 10.9 125.3 11 124.7 11.1C121.1 12 118.5 15.7 118.5 19.5C118.5 24.6 122.4 28 126.5 28C130.9 28 133 26 134 24.4H133ZM124 13.5C124.7 12.3 125.6 11.7 126.6 11.6C126.7 11.6 126.7 11.6 126.8 11.6C126.9 11.6 126.9 11.6 127 11.6H127.1C130.1 11.6 131.2 15 131.2 17.6H130.6H128.2H123.1C123.3 15.9 123.6 14.5 124 13.5Z" fill="currentColor"/>
<path d="M152.699 24.4C152.199 25.3 151.699 25.9 151.199 26.4C150.399 26.9 149.499 27.2 148.499 27.2C145.299 27.2 142.799 24.1 142.299 20.6C142.199 19.9 142.099 18.9 142.099 18.3H154.299V18.2C154.299 14.3 151.799 11.9 148.399 11.1H148.299C147.799 11 147.299 10.9 146.799 10.9C146.599 10.9 146.399 10.9 146.199 10.9C145.599 10.9 144.999 11 144.399 11.1C140.799 12 138.199 15.7 138.199 19.5C138.199 24.6 142.099 28 146.199 28C150.599 28 152.699 26 153.699 24.4H152.699ZM143.699 13.5C144.399 12.3 145.299 11.7 146.299 11.6C146.399 11.6 146.399 11.6 146.499 11.6C146.599 11.6 146.599 11.6 146.699 11.6H146.799C149.799 11.6 150.899 15 150.899 17.6H150.299H147.899H142.799C142.899 15.9 143.199 14.5 143.699 13.5Z" fill="currentColor"/>
<path d="M300.199 24.3001C299.699 25.2001 299.199 25.8001 298.699 26.3001C297.899 26.8001 296.999 27.1 295.999 27.1C292.799 27.1 290.299 24 289.799 20.5C289.699 19.8 289.599 18.8 289.599 18.2H301.799V18.1C301.799 14.2 299.299 11.8 295.899 11H295.799C295.299 10.9 294.799 10.8 294.299 10.8C294.099 10.8 293.899 10.8 293.699 10.8C293.099 10.8 292.499 10.9 291.899 11C288.299 11.9 285.699 15.6001 285.699 19.4001C285.699 24.5001 289.599 27.9001 293.699 27.9001C298.099 27.9001 300.199 25.9001 301.199 24.3001H300.199ZM291.199 13.3C291.899 12.1 292.799 11.5001 293.799 11.4001C293.899 11.4001 293.899 11.4001 293.999 11.4001C294.099 11.4001 294.099 11.4001 294.199 11.4001H294.299C297.299 11.4001 298.399 14.8001 298.399 17.4001H297.799H295.399H290.299C290.399 15.7001 290.699 14.4 291.199 13.3Z" fill="currentColor"/>
<path d="M279 13.6C277.8 12.2 275.9 11.2 274.1 11.3C271.3 11.3 269.3 12.7 268.6 13.5V11.5H264.5V11.7C264.7 11.7 265.3 11.7 265.3 12.3V36.3C265.3 37.6 263.2 38 263 38V38.2H268.6H268.7V38V28.5V27.2C268.7 26 268.7 26 268.7 26C268.7 26 269.2 27 270.6 27.6C271.2 27.8 271.8 27.9 272.4 28C272.6 28 272.7 28 272.9 28C277.4 28 281 24.4 281 19.4C281 17.3 280.3 15.1 279 13.6ZM271.9 27.1C271.5 27.1 271.2 27 270.9 26.9C270.1 26.6 269.3 25.9 269 24.8C268.9 24.5 268.8 24.1 268.8 23.8L268.7 16C268.7 15.8 268.7 15.7 268.7 15.5C268.7 13.6 271 12.3 272.3 12.3C273.8 12.3 274.8 12.6 275.8 13.8C277 15.2 277.5 17.2 277.5 19.1C277.5 23 275.6 27.1 271.9 27.1Z" fill="currentColor"/>
</svg>
